/* XPM */
static char *_176_1926d51b645d7762bdca552a1f92f82fc884ed756d4cd9a78b9eec74b8b230c1_3[] = {
/* columns rows colors chars-per-pixel */
"64 64 16 1 ",
"  c None",
". c #170618",
"X c #504446",
"o c #A81E35",
"O c #EE4928",
"+ c #F97389",
"@ c #F7D399",
"# c #F2F6EA",
"$ c black",
"% c black",
"& c black",
"* c black",
"= c black",
"- c black",
"; c black",
": c black",
/* pixels */
"                            ooXXXX......XXoo                    ",
"                            ooXXXX......XXoo                    ",
"                      ooooooOOOOOOOOooooooXXXXoo                ",
"                      ooooooOOOOOOOOooooooXXXXoo                ",
"                  ooXXooOOOOOOOOOOOOOOOOOOOOOOOOoo              ",
"                  ooXXooOOOOOOOOOOOOOOOOOOOOOOOOoo              ",
"                ..XXooOOOOOOOOOOOO++ooXX....XXooOOXX            ",
"                ..XXooOOOOOOOOOOOO++ooXX....XXooOOXX            ",
"              ooOOOOOOOOOOOOOOOO++ooXXXXXX......XXooXX          ",
"              ooOOOOOOOOOOOOOOOO++ooXXXXXX......XXooXX          ",
"            ooOOOOOOOOOOOOOOOO++oo..ooOOOOoo......XXoo          ",
"            ooOOOOOOOOOOOOOOOO++oo..ooOOOOoo......XXoo          ",
"          XXOOOOOOOOOOOOOOOO++oo..XX++oo++++OO......ooXX        ",
"          XXOOOOOOOOOOOOOOOO++oo..XX++oo++++OO......ooXX        ",
"          XXOOOOOOOOOOOOOOOOooXXXXOOoooo++oo++OO....ooXX        ",
"          XXOOOOOOOOOOOOOOOOooXXXXOOoooo++oo++OO....ooXX        ",
"          ..OOOOOOOOOOOOOOOOXX..XX++@@OOooOOooXX....ooXX        ",
"          ..OOOOOOOOOOOOOOOOXX..XX++@@OOooOOooXX....ooXX        ",
"          XXXXooOOOOOOooooOO........oo@@@@....XX..XXooXX        ",
"          XXXXooOOOOOOooooOO........oo@@@@....XX..XXooXX        ",
"            ..ooooooooXXoooo......++XX@@@@..++XX..ooXX          ",
"            ..ooooooooXXoooo......++XX@@@@..++XX..ooXX          ",
"            ..ooooooooooooXX..OO..##@@####..@@....ooXX          ",
"            ..ooooooooooooXX..OO..##@@####..@@....ooXX          ",
"          ......ooooooooooXX..++@@@@@@####@@++oo..ooXX          ",
"          ......ooooooooooXX..++@@@@@@####@@++oo..ooXX          ",
"        ..XXXX..XX..XXooooXX..oo++@@@@@@++@@@@++..XX            ",
"        ..XXXX..XX..XXooooXX..oo++@@@@@@++@@@@++..XX            ",
"      XXOOOOOOOOOOooXX..XXooXXoooo++@@@@@@@@XX++ooXX            ",
"      XXOOOOOOOOOOooXX..XXooXXoooo++@@@@@@@@XX++ooXX            ",
"    ..ooooooOOOOOOOOOOoo....XXXXooOO++++OOoo..ooXX              ",
"    ..ooooooOOOOOOOOOOoo....XXXXooOO++++OOoo..ooXX              ",
"  XXooOOOOOOOOOOOOOOOOOOXX......................ooXX            ",
"  XXooOOOOOOOOOOOOOOOOOOXX......................ooXX            ",
"  ..++OOOOOOOOOOOOOOOOoo....XX......XX..XX..XXXXooOO..          ",
"  ..++OOOOOOOOOOOOOOOOoo....XX......XX..XX..XXXXooOO..          ",
"  ..++OOOOOOOOOOOOOOOOXXooOOooXX......oo..ooooooXXooOO..        ",
"  ..++OOOOOOOOOOOOOOOOXXooOOooXX......oo..ooooooXXooOO..        ",
"    ..XXXXooOOOOOOOOOOOOOOOOXXXX..XX..OO......XXooXXoo..        ",
"    ..XXXXooOOOOOOOOOOOOOOOOXXXX..XX..OO......XXooXXoo..        ",
"      ..XXooooOOOOOOOOOOOOooXXXXXX..OO........oo..XXoo..        ",
"      ..XXooooOOOOOOOOOOOOooXXXXXX..OO........oo..XXoo..        ",
"        XXooooOOOOOOOOOOooXXXXXX..OOXX......oo..XXooXX..        ",
"        XXooooOOOOOOOOOOooXXXXXX..OOXX......oo..XXooXX..        ",
"        XX++OOOOOOOOooooXXXXXXXX..OO........XX..XXooXXoo        ",
"        XX++OOOOOOOOooooXXXXXXXX..OO........XX..XXooXXoo        ",
"        XX++OOOOOOooXX....XXXXXX..OO............oo..oo          ",
"        XX++OOOOOOooXX....XXXXXX..OO............oo..oo          ",
"        ..XX++oooo......XXooooXXXXOOoo........oo..XX            ",
"        ..XX++oooo......XXooooXXXXOOoo........oo..XX            ",
"          ..XXXX........ooooooooXX..oo....XXXX..                ",
"          ..XXXX........ooooooooXX..oo....XXXX..                ",
"                      XX....XXXXXXXXXXooXX....                  ",
"                      XX....XXXXXXXXXXooXX....                  ",
"                          ....XXXXXXXXoo..XX                    ",
"                          ....XXXXXXXXoo..XX                    ",
"                          ..@@......++..                        ",
"                          ..@@......++..                        ",
"                          ooXX..  ..XX..                        ",
"                          ooXX..  ..XX..                        ",
"                          ooOOXX  XXOOoo                        ",
"                          ooOOXX  XXOOoo                        ",
"                          ..OO++XXoo++oo                        ",
"                          ..OO++XXoo++oo                        "
};
