/* XPM */
static char *_176_1926d51b645d7762bdca552a1f92f82fc884ed756d4cd9a78b9eec74b8b230c1_1[] = {
/* columns rows colors chars-per-pixel */
"64 64 16 1 ",
"  c None",
". c #170618",
"X c #504446",
"o c #A81E35",
"O c #EE4928",
"+ c #F97389",
"@ c #F7D399",
"# c #F2F6EA",
"$ c black",
"% c black",
"& c black",
"* c black",
"= c black",
"- c black",
"; c black",
": c black",
/* pixels */
"                            ooXXXXXXXXXX                        ",
"                            ooXXXXXXXXXX                        ",
"                      ooooooOOOOOOooXX....XXoo                  ",
"                      ooooooOOOOOOooXX....XXoo                  ",
"                  ooXXooOOOOOOOOOOOOOOOOOOooXXXX                ",
"                  ooXXooOOOOOOOOOOOOOOOOOOooXXXX                ",
"                ..XXooOOOOOOOOOO++++ooooooooOOOOXX              ",
"                ..XXooOOOOOOOOOO++++ooooooooOOOOXX              ",
"              ooOOOOOOOOOOOO++++ooooXX........XXOOXX            ",
"              ooOOOOOOOOOOOO++++ooooXX........XXOOXX            ",
"            ooOOOOOOOOOOOO++OOXXXX..XXooooooXX..XXoo            ",
"            ooOOOOOOOOOOOO++OOXXXX..XXooooooXX..XXoo            ",
"          ooOOOOOOOOOOOO++OOXXXX..ooOOoo++OOoo....oo            ",
"          ooOOOOOOOOOOOO++OOXXXX..ooOOoo++OOoo....oo            ",
"          XXOOOOOOOOOOOO++oo..XXoo++++oo++oo++....XX            ",
"          XXOOOOOOOOOOOO++oo..XXoo++++oo++oo++....XX            ",
"          ..OOOOOOOOOOOOOO..XXoo++OOooooOOoo++XX..XX            ",
"          ..OOOOOOOOOOOOOO..XXoo++OOooooOOoo++XX..XX            ",
"          ..ooOOOOOOooooOO..XXoo....oo@@@@....XX..oo            ",
"          ..ooOOOOOOooooOO..XXoo....oo@@@@....XX..oo            ",
"          XXXXooooooXXooXXXXXX....++XX@@@@..++XX..oo            ",
"          XXXXooooooXXooXXXXXX....++XX@@@@..++XX..oo            ",
"            XXooooooXXooXX..oo++..##@@####..@@....XX            ",
"            XXooooooXXooXX..oo++..##@@####..@@....XX            ",
"          XX....ooooooooXX..oo++@@@@@@####@@++oo..XX            ",
"          XX....ooooooooXX..oo++@@@@@@####@@++oo..XX            ",
"      XX..............ooXX..oo++OO@@@@@@++@@@@ooXX..            ",
"      XX..............ooXX..oo++OO@@@@@@++@@@@ooXX..            ",
"    XX....XXXXooooooXX....XXoo++OO@@@@@@@@@@XXOO..XX            ",
"    XX....XXXXooooooXX....XXoo++OO@@@@@@@@@@XXOO..XX            ",
"  ooooOOOOOOOOOOooooooXX....XX++oooo++++OOoooo++..              ",
"  ooooOOOOOOOOOOooooooXX....XX++oooo++++OOoooo++..              ",
"  XX..XXooooooooooooooXXXX....................ooXX..            ",
"  XX..XXooooooooooooooXXXX....................ooXX..            ",
"  ......XXXXooooooOOOOOOOOXX........XX..XX..XXXXXX..            ",
"  ......XXXXooooooOOOOOOOOXX........XX..XX..XXXXXX..            ",
"..XX....XXXXooOOOOOOOOOOOOXX..XX....oo..oo..XXXXXXXXXX          ",
"..XX....XXXXooOOOOOOOOOOOOXX..XX....oo..oo..XXXXXXXXXX          ",
"..XX......OOOOOOOOOOOOOOOOXX..XX..XXoo....oo..XXXXooXX          ",
"..XX......OOOOOOOOOOOOOOOOXX..XX..XXoo....oo..XXXXooXX          ",
"..XXOOOOOOOOOOOOOOOOOOOOOOXX..XX..oo......ooXX..XXOOXX          ",
"..XXOOOOOOOOOOOOOOOOOOOOOOXX..XX..oo......ooXX..XXOOXX          ",
"  oooo++OOOOOOooooooOOOOOOXXXX..OO..........oo..XXOOoo          ",
"  oooo++OOOOOOooooooOOOOOOXXXX..OO..........oo..XXOOoo          ",
"    ..XX++OOXXXXXXooOOOOOOXXXXOOXX....XX....oo..OOoo..          ",
"    ..XX++OOXXXXXXooOOOOOOXXXXOOXX....XX....oo..OOoo..          ",
"      ..XXXXXXXXXXOOOOOOOOooXXOO..XX..XX....XX..OOoo..          ",
"      ..XXXXXXXXXXOOOOOOOOooXXOO..XX..XX....XX..OOoo..          ",
"          ooooooXXOOOOOOOOooXXooooXX..XX......XXooXX..          ",
"          ooooooXXOOOOOOOOooXXooooXX..XX......XXooXX..          ",
"            XXoo..ooOO++++XXXXooooooXX........oo..XX            ",
"            XXoo..ooOO++++XXXXooooooXX........oo..XX            ",
"              XX....XXXXooooooOOooooXX..XXooooXX                ",
"              XX....XXXXooooooOOooooXX..XXooooXX                ",
"                    ..........XXXX..XX......XX                  ",
"                    ..........XXXX..XX......XX                  ",
"                          ..@@..XX..++..                        ",
"                          ..@@..XX..++..                        ",
"                          ooXX..  ..XX..                        ",
"                          ooXX..  ..XX..                        ",
"                          ooOOXX  XXOOoo                        ",
"                          ooOOXX  XXOOoo                        ",
"                          ..OO++XXoo++oo                        ",
"                          ..OO++XXoo++oo                        "
};
