/* XPM */
static char *_9606_8bd7dc1eea945ff3dbafa15ba4198cd51646c39b1e31c83f795cb8a9e8e645b1[] = {
/* columns rows colors chars-per-pixel */
"64 64 255 2 ",
"   c #000000",
".  c #090003",
"X  c #1C0603",
"o  c #18150E",
"O  c #280500",
"+  c #291A04",
"@  c #2D180A",
"#  c #082918",
"$  c #28230B",
"%  c #382509",
"&  c #382B16",
"*  c #3C321B",
"=  c #002923",
"-  c #373422",
";  c #510800",
":  c #680000",
">  c #7A0000",
",  c #6B1607",
"<  c #512D09",
"1  c #542D13",
"2  c #48351A",
"3  c #55391B",
"4  c #783606",
"5  c #73300A",
"6  c #483A23",
"7  c #543D23",
"8  c #5B3B22",
"9  c #5A3B27",
"0  c #3C4733",
"q  c #5A401F",
"w  c #6C461B",
"e  c #4C452E",
"r  c #534224",
"t  c #5A4424",
"y  c #5E4823",
"u  c #544329",
"i  c #5B472A",
"p  c #5D4A2B",
"a  c #5A4C34",
"s  c #5A5138",
"d  c #664925",
"f  c #634D2D",
"g  c #694E2C",
"h  c #754929",
"j  c #64512C",
"k  c #6B512E",
"l  c #78562E",
"z  c #634E31",
"x  c #774F34",
"c  c #665132",
"v  c #6C5535",
"b  c #67573A",
"n  c #6E5738",
"m  c #6E5939",
"M  c #715633",
"N  c #735A36",
"B  c #785B35",
"V  c #725939",
"C  c #795E3A",
"Z  c #67613C",
"A  c #736438",
"S  c #7C623B",
"D  c #5C5442",
"F  c #655844",
"G  c #775D43",
"H  c #7C6442",
"J  c #796749",
"K  c #776B50",
"L  c #7D765A",
"P  c #8C0000",
"I  c #930000",
"U  c #9B0401",
"Y  c #981C00",
"T  c #A60300",
"R  c #AD0B00",
"E  c #872A03",
"W  c #972900",
"Q  c #893703",
"!  c #983201",
"~  c #913618",
"^  c #AF3005",
"/  c #C90000",
"(  c #DB1607",
")  c #E30803",
"_  c #D12C14",
"`  c #E42F00",
"'  c #8B4105",
"]  c #984407",
"[  c #894414",
"{  c #994916",
"}  c #965116",
"|  c #A64602",
" . c #B64904",
".. c #B85402",
"X. c #AC5114",
"o. c #B85918",
"O. c #905128",
"+. c #855937",
"@. c #AB5B24",
"#. c #A5512F",
"$. c #B65826",
"%. c #82653C",
"&. c #8E663A",
"*. c #86693D",
"=. c #8B6C3E",
"-. c #916E3A",
";. c #B36531",
":. c #CB5B02",
">. c #D05400",
",. c #C65B14",
"<. c #D66D06",
"1. c #C9651E",
"2. c #D76518",
"3. c #EC770A",
"4. c #E7741B",
"5. c #C6472A",
"6. c #C7692B",
"7. c #D86A24",
"8. c #DA7726",
"9. c #C57739",
"0. c #E77122",
"q. c #E97927",
"w. c #EB7C26",
"e. c #826644",
"r. c #856A45",
"t. c #8A6D47",
"y. c #846D4B",
"u. c #966C48",
"i. c #8C7444",
"p. c #8C714D",
"a. c #917241",
"s. c #93744C",
"d. c #997A4A",
"f. c #856E54",
"g. c #8C7552",
"h. c #897858",
"j. c #937954",
"k. c #987C57",
"l. c #947D5B",
"z. c #A77948",
"x. c #A87950",
"c. c #8E7D62",
"v. c #C97C47",
"b. c #F48312",
"n. c #C6853C",
"m. c #E98228",
"M. c #F58627",
"N. c #F48C26",
"B. c #F88F24",
"V. c #F2832A",
"C. c #F68D28",
"Z. c #F99027",
"A. c #F79028",
"S. c #F99028",
"D. c #F58F33",
"F. c #F89739",
"G. c #9B854C",
"H. c #87815C",
"J. c #9A8254",
"K. c #95825C",
"L. c #99825C",
"P. c #A3824B",
"I. c #A2845B",
"U. c #A98958",
"Y. c #B28E57",
"T. c #AA935A",
"R. c #B5975A",
"E. c #B8A65C",
"W. c #948464",
"Q. c #9B8563",
"!. c #9D8964",
"~. c #96886A",
"^. c #9C8A6B",
"/. c #969069",
"(. c #9C8E72",
"). c #9C9375",
"_. c #A78A63",
"`. c #A38B64",
"'. c #A38D6B",
"]. c #A19361",
"[. c #AC9767",
"{. c #A4926C",
"}. c #B39463",
"|. c #BC9B64",
" X c #B79A68",
".X c #A59373",
"XX c #AB9573",
"oX c #AC9B75",
"OX c #A59879",
"+X c #AC9B7B",
"@X c #B39B74",
"#X c #B19D7C",
"$X c #AFA160",
"%X c #B5A868",
"&X c #AAA279",
"*X c #B4A37D",
"=X c #B8A678",
"-X c #BAB27B",
";X c #D28950",
":X c #C49A5A",
">X c #F89D45",
",X c #C7A75E",
"<X c #DCA058",
"1X c #F3A34E",
"2X c #F8A555",
"3X c #C29E66",
"4X c #C9A76A",
"5X c #D4AB69",
"6X c #C8B469",
"7X c #D7B56E",
"8X c #C8AB75",
"9X c #D3AD72",
"0X c #CAB579",
"qX c #D8B476",
"wX c #F8AF65",
"eX c #E9BC6D",
"rX c #F8B169",
"tX c #E5BC76",
"yX c #DACB7B",
"uX c #E8C77B",
"iX c #EDC47A",
"pX c #F2C87C",
"aX c #AC9D81",
"sX c #B19F82",
"dX c #B6A585",
"fX c #B8A786",
"gX c #B2A987",
"hX c #B7A985",
"jX c #B6A989",
"kX c #BAAA8A",
"lX c #BCBA83",
"zX c #BCB38D",
"xX c #C4AD86",
"cX c #C8B787",
"vX c #D1BE87",
"bX c #C7BC92",
"nX c #CCC182",
"mX c #C9C28A",
"MX c #D7C88A",
"NX c #CBC196",
"BX c #CBC59B",
"VX c #D6C898",
"CX c #DBD391",
"ZX c #E8C986",
"AX c #E8DB96",
"SX c #EDE39E",
"DX c #F3E99E",
"FX c #D8CEA0",
"GX c #DBD2A4",
"HX c #E8DAA5",
"JX c #F5EBA8",
"KX c #F0EAAE",
"LX c #F4ECB6",
"PX c #FAF2B6",
"IX c #FFF8C6",
/* pixels */
"!.l.j.p.mX=Xh.j.y.H g.K.{.K.r..X.X^.!.l.y.p.p.K.^.j.K.j.y.g.k.S !.^.r.f.p.y.L.L.L.{.l.p.H r.j.!.{.y.l.XX'.`.K.g.y.p.p.!.W.h.k.g.",
"8 t S w -XK.3 M i 2 3 v v k v g d f 3 y p z c z j v z c v C N V v v v v c v *.B V k k c 7 7 f v g c v g f t 8 p p c c g k k c v ",
"c v A 1 nX].8 G V V V V V V n n m f 2 p n v V V v N N v M x M g k M M M l M n B v v V V c c V V %.S m v v v v m n m V V V V V V ",
"V V C 1 vX].8 A n V V n n M n V V V V v r c n v p.L.s.p.XX@X#X^.[.=XXXXX@X{.t.j.L.g.v n c p V V *.C m m n m V S V n V V V n V v ",
"m n G 1 nX].8 V n m M V =.%.m n n V n M g v %.u.#XfXkXfXsX(.c.x.x._.l.c.).OXdXhXdXW.l n d v m n n V V V n m M a.C m V n n V n V ",
"V n V 1 nX].8 V n V V n *.S m V n n V r.g.s.[.@XxXxXOXf.#...>.<.3.<.>.:...#.f.*XdXXX9X4X8Xg.C M m i 7 n V n V V n V M V V n V n ",
"n n C 1 nX].8 V n n C C m M n n V N p.XXdXdXfXxX#Xy.| :.4.w.V.w.w.w.V.V.w.0.>.} J 8XJ.  J.8X.Xt.N v p r v V n %.S m v V V V V v ",
"V n C 1 nX].8 V n M V a.*.n n V V d.XXdXdXjXxX{.O.:.q.q.w.M.C.C.S.D.C.C.V.V.q.0.4 /.cX[.0XxXaX@Xs.V m r v V n =.%.v V v V v c N ",
"n V C 1 nX].8 V V V n %.S n n g %.+XdXdXfXxX).' 2.q.V.N.A.S.S.S.Z.B.Z.S.S.C.V.V.7.r.cX8XcXI.dXjXXX%.k v V V M V v *.a.V V z t z ",
"V n V 1 nX].9 m 6 p V m m c e.`..XkXkXdXkX).4 2.0.m.V.A.S.S.S.S.F.F.Z.Z.S.S.C.N.4.a.@X_.@Xg.dXhXdXXX_.H v V n V =.a.*.V p 2 M 2 ",
"n V V 1 nX].8 V i z V M C t.'.jXfXfXkXkXjXx ,.7.w.V.A.S.A.S.S.2XwXrX2XS.Z.A.A.A.4.z.[.@X}.g.fXkXdXfXkXXXt.S n V *.C v z 2 i y.f ",
"v V C 1 nX].8 V V n m V a.XXkXdXjXjXkXkXf.| 7.q.V.C.S.A.A.Z.1XrXrXrXrX>XC.S.S.A.B.o.+.d.z.%.*XjXfXjXfXfXXX=.n n n V V r p n M V ",
"m V V 1 nX].8 C a.S m B `.fXfXfXfXfXkX.XQ 1.0.w.N.B.A.S.S.A.2XrXwXrXrX1XB.Z.A.Z.Z.V.,.5 h < OXkXfXfXfXkXdXk.M n m V m 6 a S 0Xr.",
"V V C 1 nX].8 V S C v C +XdXjXfXfXfXkXe...1.0.w.C.A.C.S.S.A.>XrXrXrXwX>XS.Z.S.A.B.C.w.o.{ Q h.kXjXfXfXjXjXXXC m n V p 6 7 ^.bX.X",
"a.S m 1 nX].9 V v m N t.#XfXfXjXjXjXaX[ ,.7.w.V.N.A.S.S.A.A.A.F.2X>XF.S.S.S.C.Z.S.N.V.q.7. .x dXfXjXkXjXdX+Xt.m n V u & s *X`.hX",
"C V A 1 nX].8 C n k j.sXkXjXjXfXjXzX~.] ,.2.w.m.Z.N.m.S.A.A.A.Z.B.B.Z.S.S.S.S.q.C.S.w.4.2.1.' OXxXjXfXfXjXdX#Xs.v V c @ %Xk.cXg.",
"V m V 1 nX].8 C n r._.+XfXfXfXjXkXsXG ..:.;.U.h o.A.8.m.Z.Z.A.A.A.A.A.A.A.A.m.m.N.Q l x.6.:.| f.jXjXfXjXfXfXXXI.G n V u i 6 u * ",
"f V V 1 nX].9 V k k.XXsXkXfXfXkXsX[.&. .;.W.= M T.{ Z.A.A.Z.Z.A.A.Z.A.Z.A.A.N.Z.4 Z 2 0 Q.;. .-.XXdXkXfXfXjXsX#XL.M V V v v z n ",
"h.v C 1 nX].8 V C Q.fXkXfXjXkX+X{.MX}  .R.k   5Xd.  V.S.A.A.Z.Z.A.A.A.A.A.A.S.m.  Y.,X  J }. .-.CXW.dXjXjXfXjXdXL.B V n V V V V ",
"(.O V 3 vX].9 V t.XXkXfXfXkXkX'.5X-XQ ;.R.R.d.E.    8.S.A.Z.A.A.S.A.Z.A.Z.A.Z.1.    ,Xi.:X_.$.[ 0X4X'.kXdXjXdXdX_.B m V p 7 z V ",
"~.& i 7 0XI.r V B _.kXfXfXkXOX3XiXL.! ;XJ.l AX6XA # 1.S.A.A.Z.A.S.A.Z.A.S.A.S.o.# A MXyXw T.Y.W U.iX|.aXfXjXkXjX_.C v m v u p n ",
"FXa 2 < vX`.% V j.dXkXfXfXfX_.qX0X%XI 0X[.  %X%X$X:X8.A.A.Z.A.A.A.S.A.S.S.S.Z.9.E.T.%X%X  -X4XI -X0XqX~.kXjXfXkX#Xs.v V V v f v ",
"s @ 6 + {.g.% M g.sXfXfXkXaXvXIXHXG.I qX%X  yXX   # 8.Z.C.A.A.Z.Z.A.S.S.S.S.Z.@.    j 7X  -X4XP T.KXLX8XaXkXfXkX+XS S a.%.M m v ",
".X  r 2 * & r V x l.kXfXkX+XAXHXJX-XU :XmX+.,X  $ O m.Z.A.Z.B.B.B.B.Z.A.Z.S.S.m.  $ * ,X%.ZXz.Y mXDXAXCX+XkXfXfXK.g C S a.V m v ",
"G $ a p 6 6 p V k l.jXjXdX&X5Xv.VX&X^  .0X0X-.    X.S.S.A.A.A.F.2X2X>XZ.Z.A.A.S.~     -.yX8X^ | 8XVXv.9X+XfXfXjXg.v n V a.C v n ",
"% 6 v V m M M v r.sXkXkXaX-XtX) AX=XW ..@.}.R.U.w w.C.S.A.A.B.F.2X2XF.A.Z.Z.A.A.0.d T.T.R.X.o.W mXZX) ZX&XsXkXkXXXS M V C V V V ",
"y v n V n V V v p.fXjXkX+X=XH.P d.lXQ X.|  .;X;.2.w.V.N.A.A.S.C.B.B.B.Z.S.S.N.V.q.1.v.9. .]  .[ bX+.P ].&XdXkXkXsXe.v V m v f v ",
"g.v V n m v v v *.@XkXkXaXcX%Xa &XCX> o.[ { | >.7.7.w.V.N.q.8.A.A.S.A.1.V.C.w.w.7.2.>.| [ { ..h CX/.s -XxX#XkXkX'.%.v V n v p v ",
"XXk V m C %.S m B {.fXkXsX=XKX8 CXJX+. .@.* K R.| 1.2.0.w.V.w.C.C.A.N.m.V.w.4.1.1.{ }.b r @.^ p.PX-XJ JX@XjXfXfXQ.l m m M m n V ",
"+Xk V V V =.*.V v Q.jXjXkXW.vX(.s L e Q o.l m I.I ~ ^ 5 O.6.8.w.V.V.q.7.$.O.E ^ E T _.f %.X.' e h.s &XcX~.kXfXdXj.v m S a.*.n m ",
"#XM %.=.m m v m M C #XfXkX(.4XvXzXNXh.Q ] z.B / ( _ ) -.7Xu   4 [ Q 5   Z 7X;.) _ ( R S ;.] 5 H.NXkXMX|.).kXkXXXN V v V S S V V ",
"'.g S %.v V f p n M _.dXkXaX}.eX%XVXOX< ' -.[.R _ ( / 4X,X  $         +   6X:X/ ( ( { %XO.[ 5 hXVX%XeX_.dXjXhXk.v n C S B v v v ",
"`.g V n n V V n n M j.dXjXkXQ.|.vXAXxXF ' Q G.[.> _ T 4Xt.  o X @ + X o   T.%X/ _ U %X&.] 4 J vXAXvXY.'.kXkXdXp.v n %.a.*.V p t ",
"+XN n V V v v V V g g.fXjXxX(.=XJXJXAX}.< [ E J.d.U O.6Xi.  $ o o o o $   G.6X[ P G.s.E ' 3 =XAXJXPXXXOXkXfXdXe.v V V V V V v z ",
"*XC v V n *.=.V V k k.jXkXjXjX^.ZXSXMX}.x.M W { %XP.4 %Xb   * & - & & -   J [.5 T.E.! ! B U.}.CXSXvX^.kXfXjXdXg.k V n M V v n V ",
"OXk V V V %.*.V n n G .XkXdXjXdXy.VXHX0X=X*Xk : O.R.C R.A 2 g p i i i c % d.U.+.T.~ : C =X=XvXHXbXy.fXkXfXhX^.C m n n V v V V V ",
".Xk V p v v S =.C n n B XXkXfXkX.X.XLXJXP.'.@Xd.4 ~ > %XR.H k.p.k.j.p.k.G 4XR.> ~ h G.@X`.T.PXHXQ.+XxXdXkX{.l v V V V v c v c v ",
"XXV v r n V S %.V n V V e.'.hXdXkX(. XcX9XqXqX|.|.0Xj.d P.9X9X8X9X9X9X9X4Xd.p Q.9XR.%X9X9X8XvX}..XkXdXdX`.e.V V V n n n c t p v ",
"XXM V v i c n v v n N n B a.dXjXjXkXOXG  XtXtXk.XXxX@Xr.iXpXiXiXiXiXpXiXZXqXJ aXxX'._.tXtX}.G aXkXfXkX#Xu.V n c k n V n v c v v ",
"^.k V v i f b z v v M V V N s.XXkXfXkXfXh.k.P.qXtX|.j.f.:X5XqX9X7X9X5XtX5X:XL l.8XtX4XP.j.c.kXkXkXfX.Xt.v n M r r v V M V s r c ",
"Q.k V C C z i p V V m n n n M B k.jXkXjXxXOXc.}.9X5X8XcXXXOXk.Y.Y.U.Y.j.).oXNXhX5X4X}.h.aXxXjXkXdXp.A M n m i p V V v z b V V m ",
"^.g V 3 X a.}.u O f n V C V m m V '.#XhXjXkXkX+X(.c.^.*XNXNX4XpXtXiXpX}.bXbX=X^.W.^.sXkXkXfXjX#X!.k M V V n c m d O c }.+.. 3 M ",
"{.k v bXdXo.;Xh.VX/.t *.a.=.M V V N t.Q.jXkXkXkXxXkXdX.X~.h.|.tXiXtXtX}.c.~..XdXkXkXkXkXjXfXW.e.V V V n n V H t &XbXh.;X#.zXhXt ",
"XXv 2 XX~.>.<.x &Xf.% C C C n V V n v k `.XX!.#XsXdXfXkXbXOX{.%XU. X3Xk.sXbXkXkXkXdXXX^.@XL.d m v t f V n n V < W.&X~ 3...).^.O ",
"dXf L NXe.<.8.I &XzX* V n m V v V V V n M B k *.p.Q.'.#XkX(.bXLX=XqXqX!.+XdXdX'.'.t.*.g B M m V n z c V v V v a NX^.U m.<.h.NXD ",
"#Xp J bXG ^ 5.: +XjX7 V V V v z v n n n m m n n v k M e.h.^.bXIXGX}.xX/..Xs.r.g g v n V m V V M n V n S =.a.%.u cX~.> 5.W h.bXb ",
"'.d X K.l.O : 3 '.z & C v n M m C C m V *.C m n V V n c G l.jXGXxXcXKXzXl.m v V V z n n V V n m V M v S a.S S O J ^.; : O W.f.  ",
".Xk O VXNXXXVX^.KX!.O C n V n n *.N M V *.C V n n n V m H ^.[.3XyXJXLXzXW.C m m m v n V M n m V m V n A H v A O &XHX!.VX.XFXcX  ",
"sXH 2 c m OXbXy.G 6 u r.=.V v V m m *.%.C =.S v V v =.%.H ^.4XeX0XJXLXzXQ.V V n B A n V n n S =.S v n n v A a.f 7 G h.bX`.V a 2 ",
"XXV c 2 + O O X + * p *.%.V M V M V %.%.m C =.%.n V B V H Q.4XtXT.0XGXaX`.H m V =.=.V n V v S =.C m N V n V %.C i $ + O O + 2 v ",
"XXl m V z u u 9 p S H v v m v n n F +.C V V %.S N V n v H W.|.4X4X9X8XW.'.C m M V V n n V V n v n M m n n V n n V n c a p b m n ",
".Xv n V V m m n V r.t.m m C *.C G #.$.b m M m s s n V n G W.W.8XqXqXtX X~.n V z r M V n v v V V m %.%.n n v v n V V C V V C V n ",
".Xk V V v c G z v V n V V *.a.*.b $.` x m m h @.@.h m M V ~.I.|. X X|.J.W.v V m v v c v p p v n C =.=.C n p 3 v V M c V z v V V ",
".Xg n f @ j.|.w 6 d V v C =.%.N v J #.y.b x 2.Z.A.4.h b e.W.4XpXiXiXpX XW.V m n c z j z v v n V *.=.C n M V V V k - l 3XJ & p v ",
"+XN g BXbXs.7.u.GX).3 S n V n n v m K F a { b.1X1Xb.#.a e.^.R.tXtXtXtXT.~.C n n V n C v v V n n V V V n V V V q dXFX#.9.g.BXxX3 ",
"#Xv 2 ^.L ^ 3.X.(.J + V V M V n V V 3 v z X.D.eXuXD...i e.^.+X=XJ.|.|.W.`.S v V n V f b n V V n V M m n m n V 2 h.~...b.U H.W.X ",
"oX< L HXg.^ m.| gXBX& f V V v V V V i 7 - @.3.<X<X4.,.7 e.Q.BXLXxXqXqX!.W.V m *.*.V r f V v V V M V *.a.V V f s FXOX..8.T !.FXF ",
"{.1 F dXb I ^ : W.OX& f V V M V n V m z 6 ! n.4X6X;X^ 8 g.(.bXIXGX_.zX).!.H v C C V v v V v c v V n C S V V z 2 +Xh.> 5.P K gXa ",
"XXj . [..X; , e -XJ   c V n n V m r u C c x 0X%XE.0XG t f.^.dXNX0XMXLXzXQ.G M n V n V m V v 2 t V n M m n V n . h.=X* , ; &XL.  ",
"!.k @ bXcXdXHX{.GXW.  v V n V n V c p v n b L.a.i.I.m v S ~.}.4XyXJXKXzXW.V V v f v v v f c b v V n n V V n C @ oXVX{.HX&XVXhX  ",
".XM r 2 t W.*XG 8 & 6 V n m M m n V V V V v c 6 * j v n e.~.9XeX6XJXPXzXW.C n c t v V n v m V V n n V m m n V z & q y.hXH.r 2 * ",
"+XB n i % + O % * i v n B +.v m V n v v V V b p z p C v e.(.3XtXU.0XBX).{.e.M V V n V V n V V V V V M +.m m V V f * + O % % r f ",
"jXg.d V M y y d j k g b O.,.V V v g g v k v y 2 r i n f t..X[.3X8XqX4X!.XXe.c v v v v v v g g g g v m $.;.s B v k k d y y M k k ",
"jXdX`.{.+X{.^.oXXX!.[.y.~ M.Y S }.l.!.k.g.p.y.H B B r.%.'.OX~.9XqXtXiXXXaXk.C t.r.H r.e.g.j.Q.K.k._.9 <.2., I.I.Q.oXoX!..X+X'..X"
};
