/* XPM */
static char *_251_2a42b153898fcc37a4678381fc9859f0fcb4495afedfea0fb2dc6288c334da91[] = {
/* columns rows colors chars-per-pixel */
"64 64 3 1 ",
"  c #071821",
". c #567D46",
"o c #E0F8CF",
/* pixels */
"........................................................  ......",
"........................................................  ......",
"......  ..oo......................................oo..  ........",
"......  ..oo......................................oo..  ........",
"........      oo....................................oo    ..oo..",
"........      oo....................................oo    ..oo..",
"......oo....    ....................................      oo....",
"......oo....    ....................................      oo....",
"............oo    oo  ....oo........  ....  ......oo        ....",
"............oo    oo  ....oo........  ....  ......oo        ....",
"..............          oo....  oo..      oo  ......oo      ....",
"..............          oo....  oo..      oo  ......oo      ....",
"..........oo    oo        ......  ....        ......          ..",
"..........oo    oo        ......  ....        ......          ..",
"..........        oo      ..      ......oo    ..oo..............",
"..........        oo      ..      ......oo    ..oo..............",
"....oo....                      oo......      oo........oo    ..",
"....oo....                      oo......      oo........oo    ..",
"..  ..oo      ....oo    oo    ......  ....      ........    ....",
"..  ..oo      ....oo    oo    ......  ....      ........    ....",
"..          ..........        ......oo            ..oo    oo....",
"..          ..........        ......oo            ..oo    oo....",
"..        oo....oo        oooo  ........          ..    ........",
"..        oo....oo        oooo  ........          ..    ........",
"....    ........    oo          ....................  oo  ......",
"....    ........    oo          ....................  oo  ......",
"....oo........                    ................        ......",
"....oo........                    ................        ......",
"..................................................      ........",
"..................................................      ........",
"................................................................",
"................................................................",
"  ....................oo..............  ........................",
"  ....................oo..............  ........................",
"......  ..oo..........  oo    ..  ......  oo............oo  ....",
"......  ..oo..........  oo    ..  ......  oo............oo  ....",
"  ......  ..  ......oo          ..........  ....oo....    ......",
"  ......  ..  ......oo          ..........  ....oo....    ......",
"  ....oo    ........      ..........oo..oo    ....oo    oo......",
"  ....oo    ........      ..........oo..oo    ....oo    oo......",
"  ....        ....      ..oo..........oo              ..........",
"  ....        ....      ..oo..........oo              ..........",
"  ................      oo..........      oo      oo    oo....oo",
"  ................      oo..........      oo      oo    oo....oo",
"oo................            ....  ....        oo          oo..",
"oo................            ....  ....        oo          oo..",
"  ................              ......oo            ..          ",
"  ................              ......oo            ..          ",
"  ......oo    ........................            oo....oo..    ",
"  ......oo    ........................            oo....oo..    ",
"oo..oo          ......................          oo....oo......  ",
"oo..oo          ......................          oo....oo......  ",
"  ..          oo  ..........  ......    oo          ........    ",
"  ..          oo  ..........  ......    oo          ........    ",
"  ..  ..oo..    oo........  ..  ....      oo          oo..  oo..",
"  ..  ..oo..    oo........  ..  ....      oo          oo..  oo..",
"    ......oo      ......    oo....                      ........",
"    ......oo      ......    oo....                      ........",
"  ........        ....          ................................",
"  ........        ....          ................................",
"oo....          ................................................",
"oo....          ................................................",
"  ....          ................................................",
"  ....          ................................................"
};
