/* XPM */
static char *_9811_72f99137387f7e26fee3164960dab4911282643b5888b99fab2820d35d02d365[] = {
/* columns rows colors chars-per-pixel */
"64 64 8 1 ",
"  c black",
". c #663931",
"X c #CC2E3E",
"o c #8F563B",
"O c #D95763",
"+ c gray83",
"@ c white",
"# c none",
/* pixels */
"################################################################",
"################################################################",
"################################################################",
"################################################################",
"################################################################",
"################################################################",
"################################################################",
"################################################################",
"################################################################",
"################################################################",
"################################################################",
"################################################################",
"################################################################",
"################################################################",
"################################################################",
"################################################################",
"################################################################",
"################################################################",
"################################################################",
"################################################################",
"################################################################",
"################################################################",
"################################################################",
"#########################         ##############################",
"#########################         ##############################",
"#########################         ##############################",
"######################   ooooooooo   ###########################",
"######################   ooooooooo   ###########################",
"######################   ooooooooo   ###########################",
"###################   ...ooooooooo...   ########################",
"###################   ...ooooooooo...   ########################",
"###################   ...ooooooooo...   ########################",
"###################   +++.........+++   ########################",
"###################   +++.........+++   ########################",
"###################   +++.........+++   ########################",
"######################   +++++++++   ###########################",
"######################   +++++++++   ###########################",
"######################   +++++++++   ###########################",
"###################   +++@@@XXXOOO+++   ########################",
"###################   +++@@@XXXOOO+++   ########################",
"###################   +++@@@XXXOOO+++   ########################",
"###################   +++@@@XXXOOO+++   ########################",
"###################   +++@@@XXXOOO+++   ########################",
"###################   +++@@@XXXOOO+++   ########################",
"###################   +++XXXXXXXXX+++   ########################",
"###################   +++XXXXXXXXX+++   ########################",
"###################   +++XXXXXXXXX+++   ########################",
"######################   +++++++++   ###########################",
"######################   +++++++++   ###########################",
"######################   +++++++++   ###########################",
"#########################         ##############################",
"#########################         ##############################",
"#########################         ##############################",
"################################################################",
"################################################################",
"################################################################",
"################################################################",
"################################################################",
"################################################################",
"################################################################",
"################################################################",
"################################################################",
"################################################################",
"################################################################"
};
