/* XPM */
static char *_3034_b030d25e2ab01793362df3c3be1239c11671cdae3607e257271b409db1dc819d[] = {
/* columns rows colors chars-per-pixel */
"64 64 184 2 ",
"   c #1E1A28",
".  c #251E2B",
"X  c #291C25",
"o  c #252123",
"O  c #2A2526",
"+  c #26252E",
"@  c #2C242C",
"#  c #2B2A2D",
"$  c #32292E",
"%  c #2B2633",
"&  c #2C2B34",
"*  c #2E2D39",
"=  c #272331",
"-  c #302430",
";  c #342A34",
":  c #3A2D35",
">  c #332D3A",
",  c #3B2E38",
"<  c #2E3036",
"1  c #2F3239",
"2  c #333235",
"3  c #3C3235",
"4  c #34333A",
"5  c #3D333B",
"6  c #3C3A3C",
"7  c #38393A",
"8  c #42353D",
"9  c #423B3E",
"0  c #423336",
"q  c #393140",
"w  c #3C3B43",
"e  c #3F3D4A",
"r  c #453B42",
"t  c #4A3D44",
"y  c #423A4A",
"u  c #4C3F49",
"i  c #433640",
"p  c #3E4145",
"a  c #464044",
"s  c #4A4346",
"d  c #46444B",
"f  c #4C444A",
"g  c #4D4A4C",
"h  c #52454C",
"j  c #534A4D",
"k  c #59474E",
"l  c #51504E",
"z  c #4D4C51",
"x  c #534C52",
"c  c #5A4C53",
"v  c #574A55",
"b  c #545353",
"n  c #5A5255",
"m  c #595957",
"M  c #555459",
"N  c #5C535A",
"B  c #5C5C5C",
"V  c #604F57",
"C  c #615355",
"Z  c #61545B",
"A  c #645B5E",
"S  c #6A565F",
"D  c #63635F",
"F  c #5C5B61",
"G  c #595762",
"H  c #635C62",
"J  c #6B5E64",
"K  c #6F5F69",
"L  c #5F6065",
"P  c #656364",
"I  c #6A6565",
"U  c #6B6866",
"Y  c #656469",
"T  c #6C636A",
"R  c #6C6A6B",
"E  c #73656C",
"W  c #736B6D",
"Q  c #796A6F",
"!  c #73736E",
"~  c #6E6B70",
"^  c #6F6570",
"/  c #776670",
"(  c #756C72",
")  c #7B6C73",
"_  c #746E7A",
"`  c #757372",
"'  c #7C7375",
"]  c #7C7A76",
"[  c #74757B",
"{  c #7D757B",
"}  c #7C7B7C",
"|  c #777B7A",
" . c #806F79",
".. c #82747B",
"X. c #837B7D",
"o. c #88797A",
"O. c #7E807F",
"+. c #82837D",
"@. c #89817E",
"#. c #7E7C82",
"$. c #877781",
"%. c #847C82",
"&. c #8B7D84",
"*. c #8C7F88",
"=. c #848383",
"-. c #8C8384",
";. c #8B8A85",
":. c #83868A",
">. c #8E858B",
",. c #8D8B8B",
"<. c #938586",
"1. c #92858B",
"2. c #948B8E",
"3. c #9B8B8C",
"4. c #918986",
"5. c #94928D",
"6. c #8A8792",
"7. c #938C92",
"8. c #9B8E92",
"9. c #959493",
"0. c #9B9494",
"q. c #979892",
"w. c #9A9995",
"e. c #9B959B",
"r. c #9C9B99",
"t. c #A2969A",
"y. c #A39C9C",
"u. c #A09796",
"i. c #9FA19D",
"p. c #A3A29E",
"a. c #9D9DA1",
"s. c #A49CA3",
"d. c #AB9EA4",
"f. c #A5A4A2",
"g. c #AAA4A4",
"h. c #A7A9A3",
"j. c #AAAAA5",
"k. c #ABA3A9",
"l. c #A7A9A8",
"z. c #ADABAB",
"x. c #A4A1AC",
"c. c #B1A6AA",
"v. c #B3ACAC",
"b. c #B0A4A6",
"n. c #AFB1AB",
"m. c #B3B2AD",
"M. c #BDB4AF",
"N. c #B9BAAF",
"B. c #B5B8AF",
"V. c #B3ACB3",
"C. c #B9AEB2",
"Z. c #ADB1B0",
"A. c #B5B4B2",
"S. c #BAB5B4",
"D. c #B6B9B2",
"F. c #567D46",
"G. c #567D46",
"H. c #567D46",
"J. c #567D46",
"K. c #567D46",
"L. c #C1BCB6",
"P. c #C0B5BA",
"I. c #C1BDBA",
"U. c #567D46",
"Y. c #567D46",
"T. c #C0C1B6",
"R. c #C1C2BB",
"E. c #BDBDC1",
"W. c #C2BCC2",
"Q. c #BFC1C0",
"!. c #C4C1C3",
"~. c #C7C8C0",
"^. c #CAC1C9",
"/. c #CAC4C4",
"(. c #D0C6CF",
"). c #D2C9CE",
"_. c #D4D5CE",
"`. c #CEC9D0",
"'. c #D5CCD4",
"]. c #D6D1D6",
"[. c #E4DBDE",
"{. c #DDE0D9",
"}. c #DDD7E1",
"|. c #E3DEE6",
/* pixels */
"F.F.F.F.F.F.L.F.F.F.F.J.U.F.F.F.F.F.F.U.F.F.U.F.F.L.U.J.F.F.F.F.F.L.F.F.F.F.U.J.F.L.Y.F.F.F.F.F.U.F.F.J.F.U.F.F.F.F.J.F.F.F.F.F.",
"F.F.F.F.F.F.Y.F.F.F.F.F.F.F.J.F.F.U.J.F.F.F.J.F.F.F.F.F.F.F.F.J.F.U.J.F.F.F.F.F.F.F.F.F.F.F.J.F.F.F.F.F.F.F.F.J.F.F.U.L.F.F.U.J.",
"F.F.J.F.F.F.U.F.F.F.F.F.J.U.F.F.F.L.F.F.J.F.F.F.F.F.F.F.J.U.F.F.F.F.F.F.F.I.F.F.F.F.U.F.U.F.F.F.F.J.F.F.J.F.F.F.F.J.U.F.J.F.F.F.",
"F.F.F.F.F.J.F.F.U.J.F.F.U.L.F.F.J.F.F.U.F.F.F.F.F.Y.F.F.F.F.F.F.J.U.F.F.F.F.F.F.F.F.J.F.J.F.F.F.U.U.L.F.F.F.F.U.F.F.F.F.F.F.F.F.",
"F.Y.U.F.F.F.F.F.U.L.J.F.F.F.F.F.F.F.F.F.F.F.U.L.F.F.J.F.F.F.F.F.F.F.L.F.U.F.F.F.F.J.F.F.F.F.F.U.F.F.F.F.F.F.F.J.L.F.F.F.F.F.F.T.",
"F.F.L.F.Y.F.J.F.F.F.F.F.F.F.F.J.F.F.J.F.F.U.J.F.F.F.F.U.L.F.J.F.F.J.U.F.F.F.F.F.F.F.F.F.F.F.F.J.F.F.Y.F.F.F.F.U.U.J.F.F.F.F.F.F.",
"F.F.F.J.F.F.F.F.F.U.F.F.U.F.F.F.F.F.F.F.F.J.F.F.F.F.F.F.U.F.F.U.F.U.F.F.U.F.J.F.F.F.F.F.J.F.F.F.J.F.F.F.F.J.F.L.F.F.F.F.F.F.J.F.",
"F.F.F.F.F.F.F.F.F.J.F.F.J.F.F.F.J.U.F.F.F.F.F.F.F.J.F.F.F.J.F.F.J.F.F.J.F.F.F.F.U.J.F.U.L.F.F.F.F.F.F.F.F.F.F.F.F.F.U.J.F.F.F.F.",
"J.F.F.F.J.F.F.F.F.F.F.F.F.F.F.F.F.U.J.F.F.F.J.F.F.F.I.F.F.F.J.F.F.F.F.F.F.F.F.F.F.F.F.F.F.F.J.F.F.F.F.U.F.U.F.U.J.U.F.U.J.F.F.F.",
"U.F.F.F.F.F.F.F.F.F.J.F.F.F.U.I.F.F.F.F.F.F.F.F.F.F.U.F.F.U.F.F.F.F.F.F.F.F.F.J.U.F.F.J.U.F.F.F.F.F.J.F.F.J.F.L.F.F.F.F.F.F.Y.L.",
"F.F.F.F.F.F.J.U.F.F.U.F.F.F.F.F.F.F.F.F.J.F.F.F.F.F.F.F.F.F.F.F.F.F.J.U.J.F.U.L.L.F.F.F.F.F.U.L.F.F.F.F.F.F.F.F.F.J.F.F.F.F.F.F.",
"F.F.J.F.F.U.F.U.J.F.F.F.F.F.F.F.F.F.F.I.F.T.F.F.F.F.F.F.F.J.F.F.F.F.F.F.U.F.F.F.Y.F.F.F.F.J.F.F.F.F.F.J.F.F.F.J.F.F.F.F.F.F.F.F.",
"L.F.F.F.F.J.F.L.F.F.F.F.F.U.F.F.F.F.U.F.F.F.F.F.F.U.F.F.F.L.Y.F.J.F.F.J.F.F.F.J.F.F.F.F.J.U.F.F.I.F.F.F.U.F.F.F.F.J.L.F.F.F.F.F.",
"U.J.F.F.F.F.F.F.F.J.F.F.J.F.F.F.F.J.F.F.F.J.F.F.J.F.F.F.F.F.F.F.F.F.F.F.F.F.F.F.U.F.F.F.F.F.F.J.U.F.F.F.J.F.F.F.U.F.U.F.U.J.F.F.",
"F.F.F.J.F.F.F.F.F.F.U.F.F.F.J.F.F.F.F.J.F.F.U.F.F.F.F.J.U.F.F.F.L.J.U.F.F.J.F.F.F.F.J.F.F.F.F.F.F.F.F.F.F.F.F.F.F.F.F.F.F.U.F.J.",
"F.F.F.U.F.F.F.Y.F.F.J.U.L.F.F.F.F.F.F.U.F.F.J.U.L.F.F.F.F.F.F.F.U.F.F.F.F.U.F.F.F.F.F.F.F.U.F.F.U.F.J.F.F.F.F.J.F.F.J.F.F.F.F.F.",
"F.Y.F.D.R.R.N.T.D.U.U.F.F.F.U.K.U.U.U.U.F.F.F.F.F.J.J.J.F.F.U.F.U.D.U.U.Y.J.J.F.T.T.N.F.T.T.F.F.F.U.F.F.U.D.U.F.F.I.F.L.U.F.F.F.",
"J.Y.J.I.U.D.L.F.F.F.U.F.F.F.J.U.U.U.N.U.F.F.F.F.J.J.F.J.F.F.L.F.U.U.U.U.F.U.F.F.D.U.F.U.U.N.N.U.U.F.F.U.F.U.U.F.F.F.F.I.F.F.J.U.",
"J.m.A.J.F.F.R.D.F.F.U.J.U.J.U.J.N.D.U.U.F.F.F.F.J.J.U.F.F.F.F.F.U.D.U.U.F.D.D.Y.R.U.Y.D.T.T.N.U.T.N.F.F.F.F.F.F.U.F.F.F.F.F.F.F.",
"S.p.m.F.L.R.U.T.J.F.J.U.F.U.J.U.U.U.U.U.F.F.F.Y.J.J.F.F.F.F.U.F.U.U.Y.Y.R.D.J.F.D.F.U.T.U.U.F.F.U.U.F.F.F.F.F.F.F.F.F.F.J.F.F.F.",
"g.p.M.L.I.F.F.F.U.U.U.U.F.F.F.F.F.F.F.F.F.F.J.J.F.F.J.F.F.F.N.F.D.D.U.D.F.J.J.J.R.J.Y.J.A.I.J.U.U.U.F.U.F.F.F.J.F.F.U.J.F.F.L.U.",
"0.0.v.S.R.L.R.S.K.U.U.D.U.U.F.F.U.F.F.F.F.J.J.U.F.F.F.F.T.F.T.F.U.F.J.Y.F.F.F.I.J.J.J.A.F.F.J.F.F.F.F.U.F.F.F.F.F.F.F.F.F.U.F.J.",
"u.o.y.C.H.L.I.J.U.J.J.U.F.U.F.F.F.F.J.J.J.J.U.F.U.F.U.F.F.U.F.F.F.J.Y.Z.j.p.z.v.S.L.` ` p.v.I.H.F.J.J.J.J.J.U.U.Y.F.L.U.F.J.L.U.",
"0.C 3.y.y.j.f.J.J.J.U.F.U.F.F.F.F.J.F.Y.J.J.F.U.F.U.F.F.U.F.F.F.L.J.m.R R W y.s.e.g.1.N X.0.-.P.J.J.J.Y.J.J.U.F.F.U.F.F.F.F.F.F.",
"8.E Q y.0.] +.A.F.I.F.F.R.F.F.R.I.I.J.F.F.Y.U.F.F.F.U.U.U.D.R.F.I.I.L.Q j X.<.8.d.t.8.v K $.&.-.y.I.H.F.R.R.N.F.F.U.F.F.F.F.J.F.",
"t.c Z  .3.-.A p.I.J.J.J.F.J.J.A.F.I.J.F.F.F.F.F.U.U.Y.D.F.U.N.F.c.t.t.o.A E &.) *.8.P.K K Z ) 3.I f.J.R.J.m.R.F.U.F.F.J.U.F.F.F.",
"C.A j A X.-.' ! k.J.L.J.J.J.R.Y.J.J.F.U.Y.F.F.R.J.Y.D.Y.L.m.q.-.<.2.8.0.Q 9 Z ..$.*...t.*.k ..s.1.` z.m.F.F.F.F.J.F.F.F.F.F.J.J.",
"L.W s t J ..2.<...g.C.L.L.F.D.J.J.J.F.F.U.F.F.U.U.Y.Y.D.R.M.U c h 8 k Q *. .Z r V K  .K / V V o.y.X.-.W -.0.S.F.F.F.F.F.F.F.F.Y.",
"L.k.` j j E -.<...-.y.L.L.I.J.J.F.I.F.F.F.F.F.D.U.D.I.R.F.H.I.y.) u i v Q *./ V ) *.d.t. .c V o.$.t.o.j ! 0.F.L.F.F.F.U.F.F.J.J.",
"J.R.w.n t t  .@.-...' y.H.R.F.J.F.L.F.F.L.J.U.U.Y.F.S.F.I.5.U Q / K J u 8 k H V / k H K d.3.E /  .&.y.' ' m.F.I.F.J.U.F.F.J.J.U.",
"J.J.H.' Q h t ..&.<...8.z.J.A.J.J.F.F.F.U.N.N.T.D.R.F.F.0.h 8 j E T { ) u i u V i i 8 0 h &.8.&.Q  .t.&.A 8.F.F.F.F.J.U.F.F.J.J.",
"J.E.J.g.' A k h o.8.&...) 0.m.S.I.F.F.F.A.h.h.m.F.A.y.-.j 0 9 5 3 t u N Z u X Z V 0 8 A 1.&.b.3.&. .o.&.U -.v.F.F.F.F.U.F.U.F.F.",
"J.J.R.g.I g Z u v #.1.8.>./ ..2.x.g.x.e.' n b E ..W C r i 5 8 u t 5 Z J k 0 v t v u r $.H.t./  .3.3.3.3.<.o.M.L.L.L.F.F.U.U.U.U.",
"J.I.J.J.9.a 5 n i K &.*.8.t.../ T / R N f 9 8 r r u t i t i i f Z ....) k / / c t t H t.P.s.t u / 3.t.3.C o.L.L.T.U.Y.J.F.U.U.B.",
"F.J.m.J./.l.W s f T } X.&.<.&...J Y H h s f t 8 r 0 5 5 5 , , i H ....) k S  .0 : E s.d.t.b./ r t t o. .n W v.!.F.F.F.J.J.F.N.U.",
"F.R.F.F.A.F.D.q.P A j c Y / W I x v x f u u t i t 8 8 8 8 q ; % , h r k S u 8 J ) t.c.H.c.d.Q k Q C.).[./.2.-.A.z.R.E.J.Q.J.F.U.",
"D.U.U.U.U.U.F.T.D.j.g.4...=.' T h u f f t i q , ; ; , ; * * * ; X 0 t /  .V X u ..o.k.C.b.t.&.H c.(.E.'.'.W.X.%.M :.:.#.} 7.K.J.",
"U.U.D.D.U.U.N.U.L.T.L.F.A.I.S.7.N h h f t i , , ; > , - = * % ; : V  .o.$.V V E E { 8.C.P.t.1.$.W.|.}.*.v v T z 4 w 1 < w ~ V.K.",
"U.U.U.U.N.T.U.N.L.R.A.R.J.J.A.{ k u u y i i , - X . = . = =   & u V k S  .k  .V T T ^ W.V.d.*.#.d.}.|.V.N y s.4 1 * < < % 7 [ J.",
"D.Y.U.U.U.T.N.T.U.F.F.I.J.J.s.n h t u t i i , % . % > % =   q z u 8 0 S K u S E T v $.k.a.K v #.#.d.W.}.W.$.6.> & * & & 1 * M K.",
"U.U.J.I.F.F.F.F.L.L.m.h.F.J.%.a t i r r 8 , ; . % q = = q   1 #.V.7./ J A t Z T f d d H e % y q ^ K d.g.1...v.; 4 d 7 & < 7 G G.",
"J.F.F.J.R.F.F.L.L.R.u.U H.s.M 6 8 r 8 u 5 > % . % & = q q = + L d.H n j 9 $ : a #.e.z q * % * q h t d.v.8 A { 5 P x.L 1 p [ :.Z.",
"J.Y.J.J.F.F.F.L.L.v.! b W g 6 i 0 9 t ; - > , H q = = 1 + + 1 p g s 9 h 8 O x 7.E.E.G * = * * * u x A W 0 s 3 o.J.E.a.& 7 Z.Y.Y.",
"F.J.J.J.F.I.I.L.L.y.l b f s r 6 9 8 ; 5 ; % #.6.p = 1 & + q & 1 # o O O 8 ..S.W.E.E.L & * & * e N 7.o.-.3.<.b.L.J.J.l.p O.U.G.Y.",
"F.F.J.J.I.J.J.A.S.W s 9 6 6 9 9 6 2 ; & % H x.G * q + 1 1 p M L 6 $ $ 5 -.H.H.J.K.J.} # 1 z Y 7.z.S.2.y.4.L.C.L.J.Y.D.i.Z.Y.Q.U.",
"F.F.U.U.F.J.Y.W.r.b 2 g +.n 9 7 9 d f x %.%.M * = & 1 L #.9.Z.e.r @ i j ` y.L.T.J.J.n.=.O.r.Z.K.J.J.l.R.u.F.F.F.Y.D.Q.K.U.Y.Z.U.",
"U.B.U.U.D.J.J.Z.R p 4 =.M.j.H.8.w.S.G.J.%.2 1 * * w :.G.Z.Q.J.z.Y @ f N Z ' 8.p.f.F.Y.B.U.U.K.J.Y.G.D.{.~._.F.R.J.Y.Y.Y.Y.K.U.U.",
"U.U.U.B.n.z.e.U z 9 s k.I.L.R.D.L.R.D.Q.~ * 1 & #.E.E.Q.E.Q.A.:.r g r Z E W @.] ] m.D.F.U.J.F.U.U.U.J._.F.R.J.J.Y.J.D.Y.F.U.U.U.",
"D.U.J.r.2 s B v x h 6.L.I.F.F.L.T.N.T.D.h.M * < R G.E.K.J.J.K.J.e.R j f j l ) ` ! y.v.H.F.v.v.F.Y.Y.J.J.R.D.D.L.F.T.S.F.J.F.F.F.",
"U.J.Y.w.X $ g H N Y c.I.F.J.L.F.U.N.F.F.R.r.R % 4 L z.J.K.F.F.J.J.F.+.x D n f ( W -.2./.v.-.-.v.l.Q.J.J.H.I.F.F.L.R.F.F.Y.F.F.F.",
"Y.J.Y.f.b B Y J K { J.I.F.T.F.N.F.F.F.F.R.J.f.z 4 + #.a.9.9.e.i.z.J.A.,.P r f m N ..>.` -.2.I y.>.0.9.I.J.F.R.J.I.J.F.F.J.J.J.R.",
"J.Y.J.h.W R ( ` ^ | z.J.F.N.N.U.F.D.D.J.A.l.f.[ d + + 4 # # & 7 [ z.j.%.Y j N a a n f t f } W m ,.R O b l.n.S.F.F.F.R.F.F.J.F.Y.",
"J.J.D.Y.K.f.p.u.i.4.O.;.5.5.4.+.+.+.+.+.U B ` ` g g 7 < # & + O # g M B m m ^ H Y x r a 6 f ] g j W j l R ` 9.h.f.h.i.,.,.p.n.Y.",
"J.J.F.U.F.q.q.w.q.p.+.@.+.+.! B D B B D P B B B P B F z z d w 2 6 b I B P Y Y H H M g r 2 9 a 9 O # # B U ] -.+.;.q.i.w.q.p.l.D.",
"D.i.,.! ! D U D ! 4.+.q.i.n.n.p.l.l.h.l.f.h.h.j.j.i.z.z.l.:.R m B m P B B B B P B A B b D b g 7 # l U +.;.h.F.S.n.F.Y.J.J.D.Y.R.",
"r.P ! O.i.n.m.j.N.T.U.U.U.U.U.T.J.D.Y.U.U.Y.F.T.F.Y.J.J.J.J.G.Z.Z.A.h.;.] | ] O.r.Z.,.] ] 5.j.m.D.m.F.Y.F.F.F.F.F.U.D.J.Y.F.J.F.",
"D.A.D.Y.R.N.D.U.U.U.T.U.U.U.U.U.J.J.J.J.Y.F.F.F.F.F.F.J.J.J.J.J.Y.J.F.J.Y.Y.J.Y.U.J.J.U.K.J.F.I.F.F.F.L.T.N.T.N.F.F.U.N.T.U.F.F.",
"J.D.F.U.U.U.U.U.U.U.N.U.U.D.F.Y.F.F.F.F.F.F.U.U.U.F.F.F.J.J.J.I.F.F.F.F.Y.J.Y.J.J.J.J.J.J.U.L.T.L.L.U.F.F.U.U.U.D.U.T.N.F.F.F.F.",
"U.Y.U.U.U.F.D.U.U.U.U.U.J.U.J.U.F.F.F.F.U.F.U.N.F.U.U.F.U.J.F.F.F.F.F.F.F.F.U.Y.U.F.F.F.F.U.F.N.U.U.T.U.U.N.T.U.U.U.N.U.T.T.U.F.",
"Y.Y.U.D.F.U.U.F.N.U.N.U.U.J.U.F.F.F.U.U.F.U.F.U.U.F.F.U.F.F.F.U.U.U.U.F.F.F.F.F.J.U.F.F.U.F.F.F.U.F.N.U.U.T.N.U.U.U.U.U.U.N.U.F.",
"J.F.F.F.F.J.U.F.F.J.F.F.F.F.F.J.F.U.F.F.F.F.Y.F.F.F.F.F.N.T.U.T.U.F.D.F.F.F.U.U.U.F.F.F.F.F.L.F.F.F.F.U.F.U.F.F.U.F.F.U.F.F.F.F.",
"F.J.J.U.U.J.F.F.F.F.F.F.F.F.F.F.F.U.F.F.F.F.J.J.F.F.F.F.F.U.U.N.F.U.U.U.J.F.F.F.U.J.F.J.F.U.U.U.F.F.F.F.F.T.U.F.N.F.U.F.F.F.F.F.",
"U.U.U.J.F.F.J.J.J.U.J.U.F.J.F.F.F.F.F.F.J.J.J.J.J.Y.F.F.F.F.F.F.F.F.F.F.J.F.J.J.J.U.U.F.F.F.F.L.J.J.F.F.F.F.F.F.T.F.U.J.J.J.F.F.",
"U.D.F.F.F.F.J.U.J.J.J.J.F.U.F.F.F.J.F.F.Y.J.J.J.J.J.J.J.F.F.U.U.F.F.F.U.J.J.J.U.U.J.F.F.F.F.F.U.J.F.J.J.F.F.F.F.U.F.J.J.F.U.J.J."
};
