/* XPM */
static char *_176_1926d51b645d7762bdca552a1f92f82fc884ed756d4cd9a78b9eec74b8b230c1_2[] = {
/* columns rows colors chars-per-pixel */
"64 64 16 1 ",
"  c None",
". c #170618",
"X c #504446",
"o c #A81E35",
"O c #EE4928",
"+ c #F97389",
"@ c #F7D399",
"# c #F2F6EA",
"$ c black",
"% c black",
"& c black",
"* c black",
"= c black",
"- c black",
"; c black",
": c black",
/* pixels */
"                              ooXXXXXXXX                        ",
"                              ooXXXXXXXX                        ",
"                      ooooooooOOOOoo....XXoo                    ",
"                      ooooooooOOOOoo....XXoo                    ",
"                    ..XXOOOOOOOOOOooooooXXXXXXoo                ",
"                    ..XXOOOOOOOOOOooooooXXXXXXoo                ",
"                XX..XXOOOOOOOOOOOOOOOOOOOOOOOOooXX              ",
"                XX..XXOOOOOOOOOOOOOOOOOOOOOOOOooXX              ",
"              XXooOOOOOOOOOOOOOO++OOXXXX....XXOOXXXX            ",
"              XXooOOOOOOOOOOOOOO++OOXXXX....XXOOXXXX            ",
"            ooOOOOOOOOOOOOOOOO++oo..XXXXXXXX..XXooXX            ",
"            ooOOOOOOOOOOOOOOOO++oo..XXXXXXXX..XXooXX            ",
"            ooOOOOOOOOOOOOOO++oo..XXOOooOOOOOO..ooXX            ",
"            ooOOOOOOOOOOOOOO++oo..XXOOooOOOOOO..ooXX            ",
"          ooOOOOOOOOOOOOOO++oo..XX++oooo++oo++..XXooXX          ",
"          ooOOOOOOOOOOOOOO++oo..XX++oooo++oo++..XXooXX          ",
"          XXOOOOOOOOOOOO++OOXX..OOoo@@oo++ooooOO..ooXX          ",
"          XXOOOOOOOOOOOO++OOXX..OOoo@@oo++ooooOO..ooXX          ",
"          ..ooOOOOOOooooOOoo..XX....oo@@@@....XX..ooXX          ",
"          ..ooOOOOOOooooOOoo..XX....oo@@@@....XX..ooXX          ",
"          ..XXooooooooooOOXXXX....++XX@@@@..++XX..XXXX          ",
"          ..XXooooooooooOOXXXX....++XX@@@@..++XX..XXXX          ",
"          XX..XXoooooooooo..XXOO..##@@####..@@......ooXX        ",
"          XX..XXoooooooooo..XXOO..##@@####..@@......ooXX        ",
"            ....ooooooXXoo..XX++@@@@@@####@@++oo....ooXX        ",
"            ....ooooooXXoo..XX++@@@@@@####@@++oo....ooXX        ",
"        XX..........XXXXoo..oo++++@@@@@@++@@@@OO....ooXX        ",
"        XX..........XXXXoo..oo++++@@@@@@++@@@@OO....ooXX        ",
"      XXooooooXXXXXXXX..ooXXoooo++@@@@@@@@@@XX++..oo..          ",
"      XXooooooXXXXXXXX..ooXXoooo++@@@@@@@@@@XX++..oo..          ",
"    XX..OOOOOOOOOOOOoooo..XXXXooOOoo++++OOoo..OOXX..            ",
"    XX..OOOOOOOOOOOOoooo..XXXXooOOoo++++OOoo..OOXX..            ",
"    ..XXXXooOOOOOOOOOOOOXX..........................            ",
"    ..XXXXooOOOOOOOOOOOOXX..........................            ",
"  XX..XXooOOOOOOOOOOOOoo....XX....XXoo..ooooXXXX..ooOOoo        ",
"  XX..XXooOOOOOOOOOOOOoo....XX....XXoo..ooooXXXX..ooOOoo        ",
"  ..XXooooOOOOOOOOOOOOXX..XXooXX....ooXX..XXoooooo..XXOOOO      ",
"  ..XXooooOOOOOOOOOOOOXX..XXooXX....ooXX..XXoooooo..XXOOOO      ",
"  ..XXOOOOOOOOOOOOOOooXXXXooOOXX....OOXX........XXooXX          ",
"  ..XXOOOOOOOOOOOOOOooXXXXooOOXX....OOXX........XXooXX          ",
"  oo++OOOOOOOOOOOOooooooooOOooooXX....OOXX......XXOOooXX        ",
"  oo++OOOOOOOOOOOOooooooooOOooooXX....OOXX......XXOOooXX        ",
"  ooOO++OOOOOOooXXXXooooOOOOooooXX......OO....XXOOooXX..        ",
"  ooOO++OOOOOOooXXXXooooOOOOooooXX......OO....XXOOooXX..        ",
"    ooOO++++ooXXXX..ooOOOOOOXXXXXX......OO....ooXX......        ",
"    ooOO++++ooXXXX..ooOOOOOOXXXXXX......OO....ooXX......        ",
"      ooXXXX........ooOOOOooXXXXoooooo..oo..ooXX......XX        ",
"      ooXXXX........ooOOOOooXXXXoooooo..oo..ooXX......XX        ",
"            ........OOOOOOoooooo....XXoo..XXXX....XXXX          ",
"            ........OOOOOOoooooo....XXoo..XXXX....XXXX          ",
"              XXXX..OOOOOOOOoo........XX......XX                ",
"              XXXX..OOOOOOOOoo........XX......XX                ",
"                  ..++++oo..XX..XX........                      ",
"                  ..++++oo..XX..XX........                      ",
"                    XXXX....++XX  ..++..                        ",
"                    XXXX....++XX  ..++..                        ",
"                          ..@@..  ..++..                        ",
"                          ..@@..  ..++..                        ",
"                          ooXX..  ..XX..                        ",
"                          ooXX..  ..XX..                        ",
"                          ooOOXX  XXOOoo                        ",
"                          ooOOXX  XXOOoo                        ",
"                          ..OO++XXoo++oo                        ",
"                          ..OO++XXoo++oo                        "
};
