/* XPM */
static char *_176_1926d51b645d7762bdca552a1f92f82fc884ed756d4cd9a78b9eec74b8b230c1_0[] = {
/* columns rows colors chars-per-pixel */
"64 64 16 1 ",
"  c None",
". c #170618",
"X c #504446",
"o c #A81E35",
"O c #EE4928",
"+ c #F97389",
"@ c #F7D399",
"# c #F2F6EA",
"$ c black",
"% c black",
"& c black",
"* c black",
"= c black",
"- c black",
"; c black",
": c black",
/* pixels */
"                          ooXXXXXXXX....XX                      ",
"                          ooXXXXXXXX....XX                      ",
"                    ooXXooooOOOOOOOOooooXXXXoooo                ",
"                    ooXXooooOOOOOOOOooooXXXXoooo                ",
"                  ..XXooOOOOOOOOOOOOOOOOOOOOOOooXX              ",
"                  ..XXooOOOOOOOOOOOOOOOOOOOOOOooXX              ",
"                ..XXOOOOOOOOOOOO++OOoooo....XXOOooXX            ",
"                ..XXOOOOOOOOOOOO++OOoooo....XXOOooXX            ",
"              ooOOOOOOOOOOOOOO++ooooXXXXooXX..XXoooo            ",
"              ooOOOOOOOOOOOOOO++ooooXXXXooXX..XXoooo            ",
"            ooOOOOOOOOOOOOOO++ooXX..++++++OOXX..XXooXX          ",
"            ooOOOOOOOOOOOOOO++ooXX..++++++OOXX..XXooXX          ",
"          XXOOOOOOOOOOOOOO++ooXX..++++oo++++oo....oo..          ",
"          XXOOOOOOOOOOOOOO++ooXX..++++oo++++oo....oo..          ",
"          ..OOOOOOOOOOOOOOooXX..oo++oooo++ooOO....oo..          ",
"          ..OOOOOOOOOOOOOOooXX..oo++oooo++ooOO....oo..          ",
"          ..ooOOOOOOOOOOOOoo..XX++oo@@oo++oo++XX..ooXX          ",
"          ..ooOOOOOOOOOOOOoo..XX++oo@@oo++oo++XX..ooXX          ",
"          ..ooOOOOOOooooOO..XXXX....oo@@@@....XX..ooXX          ",
"          ..ooOOOOOOooooOO..XXXX....oo@@@@....XX..ooXX          ",
"          XXXXooooooXXXXoo..XX....++XX@@@@..++XX..ooXX          ",
"          XXXXooooooXXXXoo..XX....++XX@@@@..++XX..ooXX          ",
"        XXXX..XXoooooooooo..XXOO..##@@####..@@....XXXX          ",
"        XXXX..XXoooooooooo..XXOO..##@@####..@@....XXXX          ",
"      XX........XXooXXXXoo..XX++@@@@@@####@@++oo..XXXX          ",
"      XX........XXooXXXXoo..XX++@@@@@@####@@++oo..XXXX          ",
"    XXooooooXX..........ooXX..++OO@@@@@@++@@@@oo..XX            ",
"    XXooooooXX..........ooXX..++OO@@@@@@++@@@@oo..XX            ",
"  ..OO++OOOOOOOOooooXX..XXXXXX++OO@@@@@@@@@@XXOOXX..            ",
"  ..OO++OOOOOOOOooooXX..XXXXXX++OO@@@@@@@@@@XXOOXX..            ",
"..XXXXXXooOOOOOOOOOOooXX....XXXX++oo++++OOoo..++..              ",
"..XXXXXXooOOOOOOOOOOooXX....XXXX++oo++++OOoo..++..              ",
"..XXXXooOOOOOOOOOOooooXXXX......................XX..            ",
"..XXXXooOOOOOOOOOOooooXXXX......................XX..            ",
"..OOOOOOOOOOOOOOOOooOOOOOOoo....XX..XX..XX..XXXXXX..            ",
"..OOOOOOOOOOOOOOOOooOOOOOOoo....XX..XX..XX..XXXXXX..            ",
"XXOO++OOOOOOOOOOOOOOOOOOOOOO........oo..oo..XXXXXXooXX          ",
"XXOO++OOOOOOOOOOOOOOOOOOOOOO........oo..oo..XXXXXXooXX          ",
"  oo++OOOOOOOOOOooOOOOOOOOOOXXOOOOoo......oo..XXXXOOXX          ",
"  oo++OOOOOOOOOOooOOOOOOOOOOXXOOOOoo......oo..XXXXOOXX          ",
"  XX++OOooooooooOOOOOOOOOOoo++......XX......oo..XXOOXX          ",
"  XX++OOooooooooOOOOOOOOOOoo++......XX......oo..XXOOXX          ",
"    ooooooooooooOOOOOOOOoo++..XXoo..XX..XXooXX....XXOOXX        ",
"    ooooooooooooOOOOOOOOoo++..XXoo..XX..XXooXX....XXOOXX        ",
"      XX......XXOOOOOOOO++..XXXXooXX..oooo........XXooXX        ",
"      XX......XXOOOOOOOO++..XXXXooXX..oooo........XXooXX        ",
"          ..XXooOOOOOOOOooXX....ooXXooXX........XXXXooXX        ",
"          ..XXooOOOOOOOOooXX....ooXXooXX........XXXXooXX        ",
"            XXOO++OOOOOOXX......ooXX....XX......XXooXX          ",
"            XXOO++OOOOOOXX......ooXX....XX......XXooXX          ",
"              XXoo++++XX........XXooooXX......XXoo..XX          ",
"              XXoo++++XX........XXooooXX......XXoo..XX          ",
"                  XXoo..........XXooooXX..XXoooo..XX            ",
"                  XXoo..........XXooooXX..XXoooo..XX            ",
"                    ........++XXXX..XX..........                ",
"                    ........++XXXX..XX..........                ",
"                          ..@@..XX..++..                        ",
"                          ..@@..XX..++..                        ",
"                          ooXX..  ..XX..                        ",
"                          ooXX..  ..XX..                        ",
"                          ooOOXX  XXOOoo                        ",
"                          ooOOXX  XXOOoo                        ",
"                          ..OO++XXoo++oo                        ",
"                          ..OO++XXoo++oo                        "
};
